<svg width="115" height="64" viewBox="0 0 115 64" fill="none" xmlns="http://www.w3.org/2000/svg">
<path d="M62.01 0.255125C63.117 0.293022 64.2242 0.327406 65.3314 0.358197C68.0219 0.434078 70.6946 0.58128 73.3858 0.726312C73.3858 5.87975 73.3858 11.0332 73.3858 16.3428C70.8979 16.3428 68.41 16.3428 65.8468 16.3428C65.8468 13.8549 65.8468 11.3671 65.8468 8.8038C60.5156 8.8038 55.1845 8.8038 49.6918 8.8038C49.6918 18.933 49.6918 29.0622 49.6918 39.4983C48.4479 38.432 47.2039 37.3658 45.9223 36.2673C45.5361 35.9537 45.1498 35.6402 44.7519 35.3172C42.8886 33.6821 41.9331 32.4573 41.6052 29.965C41.5553 29.0088 41.5279 28.0513 41.5197 27.0939C41.5071 26.5792 41.4946 26.0646 41.4816 25.5343C41.4626 24.4478 41.4537 23.361 41.4543 22.2743C41.4461 20.6316 41.3778 18.9987 41.3061 17.3577C41.1942 12.1324 41.512 7.72793 45.1966 3.75327C50.0035 -0.729454 55.8561 -0.114009 62.01 0.255125Z" fill="#00448C"/>
<path d="M65.8468 24.4203C68.3347 24.4203 70.8225 24.4203 73.3858 24.4203C73.3858 29.5737 73.3858 34.7272 73.3858 40.0368C68.2323 40.0368 63.0789 40.0368 57.7693 40.0368C57.7693 37.5489 57.7693 35.061 57.7693 32.4978C60.4349 32.4978 63.1004 32.4978 65.8468 32.4978C65.8468 29.8322 65.8468 27.1666 65.8468 24.4203Z" fill="#00448C"/>
<path d="M99.7723 47.0373C103.003 47.0373 103.003 47.0373 104.054 47.9679C104.349 48.3932 104.645 48.8184 104.949 49.2565C105.276 49.7157 105.604 50.1748 105.941 50.6479C106.436 51.3763 106.436 51.3763 106.941 52.1194C107.452 52.8446 107.452 52.8446 107.973 53.5845C108.6 54.4756 109.223 55.37 109.84 56.2684C110.471 57.2286 110.471 57.2286 111.081 57.8073C111.258 54.2532 111.436 50.6991 111.619 47.0373C112.508 47.0373 113.396 47.0373 114.312 47.0373C114.312 52.5461 114.312 58.055 114.312 63.7308C111.619 63.7308 111.619 63.7308 110.565 62.761C110.236 62.3147 109.906 61.8683 109.566 61.4085C109.02 60.6806 109.02 60.6806 108.462 59.9381C108.082 59.4126 107.702 58.8872 107.311 58.3458C106.904 57.7925 106.496 57.2393 106.076 56.6693C105.044 55.2598 104.022 53.8417 103.003 52.4223C102.826 56.1541 102.648 59.8859 102.465 63.7308C101.576 63.7308 100.688 63.7308 99.7723 63.7308C99.7723 58.2219 99.7723 52.7131 99.7723 47.0373Z" fill="#00448C"/>
<path d="M80.9248 47.0373C84.1558 47.0373 84.1558 47.0373 85.2061 47.9679C85.5016 48.3932 85.7971 48.8184 86.1015 49.2565C86.4288 49.7157 86.7561 50.1748 87.0933 50.6479C87.5884 51.3763 87.5884 51.3763 88.0936 52.1194C88.6043 52.8446 88.6043 52.8446 89.1253 53.5845C89.7528 54.4756 90.3758 55.37 90.9929 56.2684C91.6236 57.2286 91.6236 57.2286 92.2333 57.8073C92.411 54.2532 92.5887 50.6991 92.7718 47.0373C93.6603 47.0373 94.5488 47.0373 95.4643 47.0373C95.4643 52.5461 95.4643 58.055 95.4643 63.7308C92.7718 63.7308 92.7718 63.7308 91.7179 62.761C91.3882 62.3147 91.0585 61.8683 90.7187 61.4085C90.1721 60.6806 90.1721 60.6806 89.6144 59.9381C89.2347 59.4126 88.855 58.8872 88.4638 58.3458C88.0563 57.7925 87.6488 57.2393 87.229 56.6693C86.1961 55.2598 85.1749 53.8417 84.1558 52.4223C83.9781 56.1541 83.8004 59.8859 83.6173 63.7308C82.7288 63.7308 81.8402 63.7308 80.9248 63.7308C80.9248 58.2219 80.9248 52.7131 80.9248 47.0373Z" fill="#00448C"/>
<path d="M27.6133 47.0373C29.1152 46.9068 29.1152 46.9068 30.8443 47.0373C31.8666 47.9418 31.8666 47.9418 32.6618 49.124C32.9325 49.5113 33.2032 49.8986 33.4821 50.2977C34.0753 51.3453 34.0753 51.3453 34.0753 52.4223C35.4624 51.0737 36.7214 49.795 37.8448 48.2152C38.9218 47.0373 38.9218 47.0373 40.4027 46.869C41.0024 46.9523 41.0024 46.9523 41.6143 47.0373C40.8635 49.4397 39.5386 51.05 37.9226 52.9271C37.1958 54.0141 37.1958 54.0141 37.3442 55.3272C37.9714 57.0849 38.892 58.3186 40.0325 59.793C42.1528 62.5468 42.1528 62.5468 42.1528 63.7308C40.6635 63.8969 40.6635 63.8969 38.9218 63.7308C37.8196 62.5717 37.8196 62.5717 36.9024 61.0719C35.7981 59.1058 35.7981 59.1058 34.0753 57.8073C33.9532 58.0849 33.831 58.3626 33.7051 58.6487C33.0933 59.7849 32.475 60.8895 31.7867 61.9806C31.584 62.311 31.3813 62.6415 31.1725 62.9819C29.8708 64.1067 28.7307 63.8497 27.0748 63.7308C27.6683 62.7877 28.2632 61.8455 28.8586 60.9036C29.1897 60.3788 29.5208 59.8541 29.862 59.3134C30.8443 57.8073 30.8443 57.8073 31.8435 56.705C32.6198 55.6603 32.6198 55.6603 32.1443 54.368C31.3004 52.8085 30.3979 51.3172 29.4308 49.8307C29.0906 49.3053 28.7505 48.7798 28.4 48.2384C28.1404 47.842 27.8808 47.4456 27.6133 47.0373Z" fill="#00448C"/>
<path d="M57.2308 48.1143C57.7639 48.4697 58.297 48.8251 58.8463 49.1913C58.4909 49.9021 58.1355 50.6129 57.7693 51.3453C57.425 51.1676 57.0807 50.9899 56.726 50.8068C54.5083 50.0826 52.5391 49.8758 50.2303 50.2683C48.4802 51.2106 48.4802 51.2106 47.5378 52.9608C47.1655 54.6625 47.1625 56.1059 47.5378 57.8073C48.5143 59.5467 48.5143 59.5467 50.2303 60.4998C53.0718 60.8155 55.0932 60.4932 57.7693 59.4228C58.1247 59.9559 58.4801 60.489 58.8463 61.0383C56.2432 63.2192 54.3613 63.9935 50.9939 63.9495C48.6107 63.5491 47.0086 62.2313 45.3838 60.4998C43.9108 57.968 43.309 55.8699 43.7683 52.9608C45.0342 50.5323 46.4598 48.9725 48.8167 47.5758C51.9752 46.7045 54.3145 46.4621 57.2308 48.1143Z" fill="#00448C"/>
<path d="M0.688354 47.0373C4.42016 47.0373 8.15196 47.0373 11.9968 47.0373C11.9968 47.9258 11.9968 48.8143 11.9968 49.7298C9.33127 49.7298 6.6657 49.7298 3.91935 49.7298C3.91935 51.1514 3.91935 52.573 3.91935 54.0378C6.40722 54.0378 8.89509 54.0378 11.4583 54.0378C11.4583 54.9263 11.4583 55.8148 11.4583 56.7303C8.79277 56.7303 6.1272 56.7303 3.38085 56.7303C3.38085 59.0404 3.38085 61.3506 3.38085 63.7308C2.49233 63.7308 1.6038 63.7308 0.688354 63.7308C0.688354 58.2219 0.688354 52.7131 0.688354 47.0373Z" fill="#00448C"/>
<path d="M57.7693 16.3428C60.4349 16.3428 63.1004 16.3428 65.8468 16.3428C65.8468 19.0084 65.8468 21.6739 65.8468 24.4203C63.1812 24.4203 60.5156 24.4203 57.7693 24.4203C57.7693 21.7547 57.7693 19.0891 57.7693 16.3428Z" fill="#00448C"/>
<path d="M21.6898 47.0373C22.5784 47.0373 23.4669 47.0373 24.3823 47.0373C24.3823 52.5461 24.3823 58.055 24.3823 63.7308C23.4938 63.7308 22.6053 63.7308 21.6898 63.7308C21.6898 58.2219 21.6898 52.7131 21.6898 47.0373Z" fill="#00448C"/>
<path d="M14.6893 47.0373C15.5779 47.0373 16.4664 47.0373 17.3818 47.0373C17.3818 52.5461 17.3818 58.055 17.3818 63.7308C16.4933 63.7308 15.6048 63.7308 14.6893 63.7308C14.6893 58.2219 14.6893 52.7131 14.6893 47.0373Z" fill="#00448C"/>
<path fill-rule="evenodd" clip-rule="evenodd" d="M77.6938 51.8838C76.2936 49.5277 74.2755 48.0863 71.7703 47.0373C68.7512 46.6406 66.5357 46.7036 64.0294 48.4845C62.2233 50.0755 60.6494 51.5873 60.3103 54.0693C60.262 57.3638 60.9743 59.1611 63.1543 61.5768C65.0758 63.2695 66.5276 63.8893 69.0441 64C72.4872 63.8447 74.4295 62.7155 76.8524 60.2305C78.0672 57.5093 78.148 54.8216 77.6938 51.8838ZM75.0013 52.9608C74.1889 51.3359 73.3159 50.6958 71.7703 49.7298C67.8893 49.2271 65.1178 49.8101 63.1543 53.4993C62.9072 55.2565 63.0951 56.6782 63.6928 58.3458C65.1512 60.1323 65.9081 60.8934 68.1775 61.2171C70.6839 61.2615 72.1115 61.1923 73.9916 59.4228C75.344 57.2589 75.3002 55.4552 75.0013 52.9608Z" fill="#00448C"/>
</svg>
