<svg width="172" height="97" viewBox="0 0 172 97" fill="none" xmlns="http://www.w3.org/2000/svg">
<path d="M92.7902 0.384119C94.457 0.441177 96.1239 0.492946 97.791 0.539306C101.842 0.653553 105.866 0.875182 109.918 1.09354C109.918 8.85263 109.918 16.6117 109.918 24.6059C106.172 24.6059 102.426 24.6059 98.567 24.6059C98.567 20.8601 98.567 17.1144 98.567 13.2551C90.5403 13.2551 82.5137 13.2551 74.2438 13.2551C74.2438 28.5057 74.2438 43.7563 74.2438 59.4691C72.3709 57.8638 70.498 56.2584 68.5684 54.6045C67.9869 54.1324 67.4053 53.6603 66.8062 53.1739C64.0008 50.7122 62.5622 48.868 62.0686 45.1157C61.9934 43.6761 61.9521 42.2344 61.9397 40.7928C61.9208 40.018 61.9019 39.2431 61.8825 38.4448C61.8538 36.8089 61.8404 35.1726 61.8413 33.5365C61.829 31.0632 61.7262 28.6047 61.6183 26.134C61.4496 18.2667 61.9282 11.6353 67.4758 5.65097C74.7131 -1.09828 83.5248 -0.171654 92.7902 0.384119Z" fill="#E6EFF6"/>
<path d="M98.567 36.7675C102.313 36.7675 106.058 36.7675 109.918 36.7675C109.918 44.5266 109.918 52.2856 109.918 60.2799C102.159 60.2799 94.3996 60.2799 86.4054 60.2799C86.4054 56.5341 86.4054 52.7883 86.4054 48.9291C90.4187 48.9291 94.432 48.9291 98.567 48.9291C98.567 44.9157 98.567 40.9024 98.567 36.7675Z" fill="#E6EFF6"/>
<path d="M149.646 70.8199C154.51 70.8199 154.51 70.8199 156.092 72.2211C156.536 72.8613 156.981 73.5015 157.44 74.1611C157.933 74.8525 158.425 75.5439 158.933 76.2562C159.678 77.3528 159.678 77.3528 160.439 78.4715C161.208 79.5634 161.208 79.5634 161.992 80.6774C162.937 82.0191 163.875 83.3657 164.804 84.7184C165.754 86.1641 165.754 86.1641 166.672 87.0353C166.939 81.6842 167.207 76.3331 167.483 70.8199C168.82 70.8199 170.158 70.8199 171.536 70.8199C171.536 79.1141 171.536 87.4083 171.536 95.9538C167.483 95.9538 167.483 95.9538 165.896 94.4938C165.399 93.8217 164.903 93.1497 164.391 92.4573C163.568 91.3615 163.568 91.3615 162.729 90.2436C162.157 89.4524 161.585 88.6612 160.996 87.8461C160.383 87.0131 159.769 86.1801 159.137 85.3219C157.582 83.1998 156.045 81.0648 154.51 78.9276C154.243 84.5462 153.975 90.1649 153.699 95.9538C152.362 95.9538 151.024 95.9538 149.646 95.9538C149.646 87.6596 149.646 79.3654 149.646 70.8199Z" fill="#E6EFF6"/>
<path d="M121.269 70.8199C126.133 70.8199 126.133 70.8199 127.715 72.2211C128.159 72.8613 128.604 73.5015 129.063 74.1611C129.556 74.8525 130.048 75.5439 130.556 76.2562C131.301 77.3528 131.301 77.3528 132.062 78.4715C132.831 79.5634 132.831 79.5634 133.615 80.6774C134.56 82.0191 135.498 83.3657 136.427 84.7184C137.377 86.1641 137.377 86.1641 138.295 87.0353C138.562 81.6842 138.83 76.3331 139.106 70.8199C140.443 70.8199 141.781 70.8199 143.159 70.8199C143.159 79.1141 143.159 87.4083 143.159 95.9538C139.106 95.9538 139.106 95.9538 137.519 94.4938C137.022 93.8217 136.526 93.1497 136.014 92.4573C135.191 91.3615 135.191 91.3615 134.352 90.2436C133.78 89.4524 133.208 88.6612 132.619 87.8461C132.006 87.0131 131.392 86.1801 130.76 85.3219C129.205 83.1998 127.668 81.0648 126.133 78.9276C125.866 84.5462 125.598 90.1649 125.322 95.9538C123.985 95.9538 122.647 95.9538 121.269 95.9538C121.269 87.6596 121.269 79.3654 121.269 70.8199Z" fill="#E6EFF6"/>
<path d="M41.0022 70.8199C43.2635 70.6235 43.2635 70.6235 45.8668 70.8199C47.406 72.1817 47.406 72.1817 48.6032 73.9616C49.0108 74.5448 49.4184 75.128 49.8383 75.7288C50.7314 77.3061 50.7314 77.3061 50.7314 78.9276C52.8199 76.8972 54.7154 74.972 56.4068 72.5934C58.0284 70.8199 58.0284 70.8199 60.258 70.5665C61.161 70.6919 61.161 70.6919 62.0822 70.8199C60.9519 74.4371 58.957 76.8616 56.524 79.6877C55.4296 81.3244 55.4296 81.3244 55.6531 83.3013C56.5974 85.9478 57.9834 87.8051 59.7006 90.025C62.893 94.1712 62.893 94.1712 62.893 95.9538C60.6507 96.204 60.6507 96.204 58.0284 95.9538C56.3688 94.2087 56.3688 94.2087 54.988 91.9506C53.3253 88.9905 53.3253 88.9905 50.7314 87.0353C50.5475 87.4534 50.3636 87.8714 50.174 88.3021C49.2529 90.0128 48.322 91.676 47.2857 93.3188C46.9805 93.8163 46.6753 94.3138 46.3609 94.8263C44.401 96.5198 42.6845 96.1329 40.1914 95.9538C41.085 94.5339 41.9806 93.1153 42.8771 91.6972C43.3756 90.9071 43.8742 90.117 44.3878 89.3029C45.8668 87.0353 45.8668 87.0353 47.3712 85.3758C48.54 83.8028 48.54 83.8028 47.8241 81.8571C46.5535 79.5091 45.1946 77.2638 43.7385 75.0258C43.2264 74.2346 42.7143 73.4434 42.1867 72.6283C41.7958 72.0315 41.4049 71.4347 41.0022 70.8199Z" fill="#E6EFF6"/>
<path d="M85.5946 72.4414C86.3973 72.9765 87.1999 73.5116 88.0269 74.063C87.4918 75.1332 86.9567 76.2034 86.4054 77.3061C85.887 77.0385 85.3686 76.7709 84.8345 76.4953C81.4956 75.405 78.5308 75.0936 75.0546 75.6845C72.4196 77.1034 72.4196 77.1034 71.0007 79.7384C70.4401 82.3005 70.4356 84.4737 71.0007 87.0353C72.4709 89.6542 72.4709 89.6542 75.0546 91.0892C79.3327 91.5645 82.3762 91.0793 86.4054 89.4676C86.9405 90.2703 87.4756 91.0729 88.0269 91.8999C84.1076 95.1837 81.2743 96.3493 76.2042 96.2832C72.6161 95.6803 70.2039 93.6962 67.7576 91.0892C65.5398 87.2773 64.6338 84.1183 65.3253 79.7384C67.2312 76.082 69.3777 73.7336 72.9263 71.6307C77.6817 70.3188 81.2038 69.9539 85.5946 72.4414Z" fill="#E6EFF6"/>
<path d="M0.463623 70.8199C6.08227 70.8199 11.7009 70.8199 17.4898 70.8199C17.4898 72.1577 17.4898 73.4954 17.4898 74.8737C13.4765 74.8737 9.46319 74.8737 5.32825 74.8737C5.32825 77.0142 5.32825 79.1546 5.32825 81.3599C9.07401 81.3599 12.8198 81.3599 16.6791 81.3599C16.6791 82.6977 16.6791 84.0355 16.6791 85.4138C12.6657 85.4138 8.65241 85.4138 4.51748 85.4138C4.51748 88.892 4.51748 92.3702 4.51748 95.9538C3.17971 95.9538 1.84193 95.9538 0.463623 95.9538C0.463623 87.6596 0.463623 79.3654 0.463623 70.8199Z" fill="#E6EFF6"/>
<path d="M86.4054 24.6059C90.4187 24.6059 94.432 24.6059 98.567 24.6059C98.567 28.6192 98.567 32.6325 98.567 36.7675C94.5536 36.7675 90.5403 36.7675 86.4054 36.7675C86.4054 32.7542 86.4054 28.7408 86.4054 24.6059Z" fill="#E6EFF6"/>
<path d="M32.0837 70.8199C33.4215 70.8199 34.7593 70.8199 36.1376 70.8199C36.1376 79.1141 36.1376 87.4083 36.1376 95.9538C34.7998 95.9538 33.462 95.9538 32.0837 95.9538C32.0837 87.6596 32.0837 79.3654 32.0837 70.8199Z" fill="#E6EFF6"/>
<path d="M21.5437 70.8199C22.8815 70.8199 24.2192 70.8199 25.5975 70.8199C25.5975 79.1141 25.5975 87.4083 25.5975 95.9538C24.2598 95.9538 22.922 95.9538 21.5437 95.9538C21.5437 87.6596 21.5437 79.3654 21.5437 70.8199Z" fill="#E6EFF6"/>
<path fill-rule="evenodd" clip-rule="evenodd" d="M116.404 78.1168C114.296 74.5695 111.257 72.3994 107.485 70.8199C102.94 70.2226 99.6042 70.3176 95.8306 72.9988C93.1114 75.3943 90.7418 77.6704 90.2312 81.4074C90.1584 86.3676 91.2309 89.0736 94.5131 92.7107C97.4062 95.2593 99.5921 96.1924 103.381 96.3592C108.565 96.1253 111.489 94.4252 115.137 90.6838C116.966 86.5867 117.088 82.54 116.404 78.1168ZM112.35 79.7384C111.127 77.292 109.813 76.3282 107.485 74.8737C101.642 74.1168 97.4693 74.9947 94.5131 80.5491C94.1411 83.1949 94.4239 85.3354 95.3239 87.8461C97.5196 90.5359 98.6593 91.6819 102.076 92.1692C105.85 92.2361 107.999 92.1318 110.83 89.4676C112.866 86.2097 112.8 83.494 112.35 79.7384Z" fill="#E6EFF6"/>
</svg>
